<?xml version="1.0" standalone="no"?>
<!DOCTYPE svg PUBLIC "-//W3C//DTD SVG 20010904//EN"
 "http://www.w3.org/TR/2001/REC-SVG-20010904/DTD/svg10.dtd">
<svg version="1.0" xmlns="http://www.w3.org/2000/svg"
 width="500.000000pt" height="500.000000pt" viewBox="0 0 500.000000 500.000000"
 preserveAspectRatio="xMidYMid meet">
<metadata>
Created by potrace 1.14, written by Peter Selinger 2001-2017
</metadata>
<g transform="translate(0.000000,500.000000) scale(0.100000,-0.100000)"
fill="#000000" stroke="none">
<path d="M1160 4803 c-141 -17 -256 -70 -345 -159 -72 -72 -77 -78 -109 -140
-67 -130 -95 -256 -99 -440 -7 -281 60 -559 209 -868 25 -53 31 -74 23 -88 -6
-10 -32 -85 -59 -165 l-49 -147 -78 -77 c-84 -82 -95 -95 -133 -149 -13 -19
-27 -37 -30 -40 -3 -3 -27 -41 -54 -85 -26 -44 -52 -87 -57 -95 -60 -99 -138
-308 -155 -415 -3 -22 -8 -43 -10 -47 -7 -11 -18 -151 -18 -228 2 -431 165
-789 469 -1028 50 -39 198 -137 203 -133 1 0 32 -14 70 -33 37 -18 78 -37 92
-41 14 -4 39 -13 55 -20 32 -14 70 -27 70 -25 0 1 12 -3 27 -9 34 -13 200 -57
248 -66 19 -4 55 -11 80 -15 43 -9 192 -31 295 -45 28 -4 73 -8 100 -10 28 -1
88 -6 135 -11 116 -10 765 -11 925 -1 202 13 278 20 345 32 14 3 45 7 70 10
52 6 74 10 185 31 118 23 217 49 338 89 60 19 113 32 119 29 6 -4 8 -3 5 3 -3
5 35 29 86 53 155 72 279 159 390 274 57 57 157 188 157 204 0 5 3 12 8 14 7
3 29 46 71 138 39 88 69 194 96 340 14 81 17 293 5 387 -41 317 -233 695 -458
905 -66 61 -70 66 -101 163 -17 55 -44 130 -58 168 l-26 67 33 68 c65 131 138
326 154 405 3 12 11 54 20 92 30 143 46 367 32 456 -3 19 -8 55 -11 81 -3 26
-8 53 -10 60 -2 7 -6 25 -9 39 -2 14 -17 57 -32 95 -84 210 -234 334 -444 368
-244 40 -479 -45 -901 -324 l-123 -81 -65 7 c-84 10 -510 10 -621 1 -85 -6
-85 -6 -135 27 -104 70 -237 156 -241 156 -2 0 -27 15 -56 33 -122 77 -348
168 -448 182 -57 8 -148 11 -180 8z m2650 -2383 c0 -5 -5 -10 -11 -10 -5 0 -7
5 -4 10 3 6 8 10 11 10 2 0 4 -4 4 -10z m-2396 -41 c-6 -11 -66 -39 -81 -39
-10 0 69 49 80 50 5 0 5 -5 1 -11z"/>
</g>
</svg>
